<svg width="24" height="24" fill="none" xmlns="http://www.w3.org/2000/svg"><g clip-path="url(#clip0)"><path d="M12 0C5.375 0 .002 5.373.002 12s5.373 12 12 12 12-5.373 12-12S18.628 0 12 0zm0 4.215l7.102 4.428H4.9L12 4.215zm7.19 11.499c0 .71-.576 1.286-1.286 1.286H6.098c-.71 0-1.286-.576-1.286-1.286v-6.79c0-.074.008-.147.02-.22l6.785 4.231c.008.006.017.01.026.014l.027.014a.71.71 0 00.148.058l.015.003a.733.733 0 00.168.022.717.717 0 00.168-.022l.016-.003a.72.72 0 00.175-.072c.008-.005.017-.008.026-.014l6.784-4.23c.013.072.02.144.02.22v6.789z" fill="#333"/></g><defs><clipPath id="clip0"><path fill="#fff" d="M0 0h24v24H0z"/></clipPath></defs></svg>