<svg width="10" height="10" fill="none" xmlns="http://www.w3.org/2000/svg"><path d="M9.167 5a.417.417 0 00-.417.417v2.916c0 .23-.186.417-.417.417H1.667a.417.417 0 01-.417-.417V1.667c0-.23.187-.417.417-.417h2.916a.417.417 0 000-.833H1.667c-.69 0-1.25.56-1.25 1.25v6.666c0 .69.56 1.25 1.25 1.25h6.666c.69 0 1.25-.56 1.25-1.25V5.417A.417.417 0 009.167 5z" fill="#23527C"/><path d="M9.583.829a.419.419 0 00-.008-.077C9.573.74 9.568.729 9.565.718 9.56.703 9.557.688 9.55.674a.122.122 0 00-.018-.036c-.006-.012-.011-.025-.02-.036A.424.424 0 009.47.55C9.467.546 9.465.542 9.461.539L9.451.53a.416.416 0 00-.053-.043c-.012-.008-.024-.013-.036-.02C9.35.462 9.34.455 9.326.45A.274.274 0 009.28.435c-.01-.003-.021-.008-.033-.01a.412.412 0 00-.082-.008h-2.5a.417.417 0 100 .833H8.16L4.747 4.664a.417.417 0 10.59.589L8.75 1.839v1.494a.417.417 0 00.833 0V.83z" fill="#23527C"/></svg>