<svg width="20" height="20" fill="none" xmlns="http://www.w3.org/2000/svg"><path d="M16.639 3.477C15.112 1.267 12.692 0 10.001 0 7.309 0 4.889 1.268 3.362 3.477c-1.52 2.199-1.87 4.982-.94 7.442a6.36 6.36 0 001.172 1.935l5.874 6.9a.699.699 0 001.065 0l5.872-6.898c.531-.615.926-1.267 1.172-1.933.932-2.464.581-5.247-.938-7.446zm-.371 6.956c-.19.514-.5 1.023-.923 1.511l-.003.004-5.341 6.274-5.345-6.278a4.972 4.972 0 01-.924-1.515c-.77-2.034-.478-4.336.78-6.156 1.262-1.827 3.263-2.874 5.489-2.874 2.225 0 4.225 1.047 5.487 2.874 1.259 1.82 1.55 4.122.78 6.16z" fill="#8F9BAB"/><path d="M10 4.15a3.92 3.92 0 00-3.916 3.915 3.92 3.92 0 003.917 3.916 3.92 3.92 0 003.916-3.916A3.92 3.92 0 0010 4.15zm0 6.433a2.52 2.52 0 01-2.517-2.518 2.52 2.52 0 012.518-2.517 2.52 2.52 0 012.517 2.517 2.52 2.52 0 01-2.517 2.518z" fill="#8F9BAB"/></svg>