<svg width="24" height="24" fill="none" xmlns="http://www.w3.org/2000/svg"><path d="M20.483 3.513C15.796-1.173 8.2-1.171 3.514 3.516c-4.686 4.687-4.684 12.284.003 16.97 4.687 4.686 12.284 4.685 16.97-.003a12 12 0 00-.003-16.97zm-2.31 13.202l-.001.002v-.004l-.608.604a3.2 3.2 0 01-3.02.864 10.631 10.631 0 01-3.088-1.384 14.27 14.27 0 01-2.436-1.964 14.379 14.379 0 01-1.82-2.208 11.2 11.2 0 01-1.37-2.768 3.2 3.2 0 01.8-3.268l.712-.712c.198-.199.52-.2.719-.002l.001.002 2.248 2.248a.508.508 0 010 .72l-1.32 1.32c-.378.375-.426.97-.112 1.4a15.434 15.434 0 001.58 1.844c.64.643 1.337 1.228 2.08 1.748.43.3 1.013.25 1.385-.12l1.276-1.296a.508.508 0 01.72 0l2.252 2.256c.198.198.2.52.001.718z" fill="#fff"/></svg>