<svg width="20" height="20" fill="none" xmlns="http://www.w3.org/2000/svg"><path d="M20 10c0-5.527-4.473-10-10-10S0 4.473 0 10c0 5.478 4.435 10 10 10 5.542 0 10-4.497 10-10zM10 1.172c4.868 0 8.828 3.96 8.828 8.828 0 1.78-.53 3.492-1.512 4.942-3.944-4.242-10.681-4.25-14.632 0A8.787 8.787 0 011.172 10c0-4.868 3.96-8.828 8.828-8.828zM3.415 15.879c3.506-3.934 9.665-3.933 13.17 0a8.82 8.82 0 01-13.17 0z" fill="#fff"/><path d="M10.182 10.586a3.52 3.52 0 003.516-3.516V5.898a3.52 3.52 0 00-3.516-3.515 3.52 3.52 0 00-3.515 3.515V7.07a3.52 3.52 0 003.515 3.516zM7.838 5.898a2.346 2.346 0 012.344-2.343 2.346 2.346 0 012.344 2.343V7.07a2.346 2.346 0 01-2.344 2.344A2.346 2.346 0 017.838 7.07V5.898z" fill="#fff"/></svg>