<svg width="98" height="20" fill="none" xmlns="http://www.w3.org/2000/svg"><path fill-rule="evenodd" clip-rule="evenodd" d="M91.8 9.952c1.7 0 2.7.87 2.7 2.802 0 2.029-1.1 2.802-2.8 2.802H91V9.952h.8zM98 4.83h-1.1v11.594H98V4.831zm-8.1 11.594h1.9c2.3 0 3.8-1.256 3.8-3.671 0-2.416-1.5-3.575-3.8-3.575H91V4.83h-1.1v11.594zm-2-11.69v.096h-6.7v.87H84v10.724h1.1V5.7h2.8v-.966zm-11 11.883c2.2 0 3.7-2.125 3.7-6.376 0-3.382-1.2-5.7-3.2-5.7-1.3 0-2.2 1.062-2.7 2.125l-.1-1.933h-1v15.17h1.1v-4.348c.6.676 1.4 1.062 2.2 1.062zm.1-.87c-1.1 0-1.7-.482-2.2-1.352V7.923c.5-1.256 1.4-2.32 2.5-2.32 1.4 0 2.2 1.837 2.2 4.832 0 3.575-1 5.314-2.5 5.314zm-6.7.677h1c-.1-.483-.3-1.353-.3-2.126V8.02c0-2.319-1.1-3.381-3.1-3.381-1.4 0-2.4.58-2.8 1.16l.3 1.062C66 5.99 67 5.604 68 5.604c1.3 0 2 .773 2 2.512v1.45h-1.3c-2.6 0-4 1.255-4 3.767 0 2.126 1.1 3.382 2.7 3.382 1.2 0 2-.676 2.6-1.836.1.773.2 1.256.3 1.546zm-2.6-.676c-1.1 0-1.9-.966-1.9-2.609 0-2.029 1-2.899 2.9-2.899H70v3.286c-.4 1.256-1.2 2.222-2.3 2.222zm-5.1.676H64l-5.3-8.889L63.6 0h-1.1l-5 7.633V0h-1.2v16.425h1.2V7.73l5.1 8.696zM31.5 6.184c1.1 0 1.4 1.449 1.4 3.381h-3.1c.1-2.029.5-3.381 1.7-3.381zm-7.6 8.792h-3.2c1-2.416 1.1-5.99 1.1-8.406v-.193h2.1v8.599zm24.2 1.642c1.1 0 1.9-.386 2.5-.87l-.4-1.352c-.4.387-1.1.676-2 .676-1.5 0-2.2-1.642-2.2-4.54 0-2.9 1-4.348 2.3-4.348.8 0 1.5.386 2 .773l.3-1.74c-.5-.29-1.1-.58-2.2-.58-2.8 0-4.3 2.32-4.3 5.991-.2 3.961 1.4 5.99 4 5.99zm-6.4-.193h2l-3.4-6.087 3-5.41h-1.9l-2.9 5.314V4.83h-1.9v11.594h1.9v-5.797l3.2 5.797zM15.4 4.831v4.927h-2.8V4.831h-1.9v11.594h1.9v-5.217h2.8v5.217h1.8V4.831h-1.8zm19.4 10.821l-.4-1.352c-.5.29-1.3.772-2.4.772-1.5 0-2.2-1.352-2.2-3.96h5v-.967c0-3.961-1.3-5.41-3.3-5.41-2.5 0-3.6 2.705-3.6 6.473 0 3.575 1.5 5.507 4 5.507a5.81 5.81 0 002.9-1.063zm-8.1-.676h-1V4.83h-5.6v.966c0 3.092-.1 6.667-1.2 9.082h-.7v3.768h1.7v-2.222H25v2.319h1.7v-3.768z" fill="#000"/><path fill-rule="evenodd" clip-rule="evenodd" d="M6.5 10.145v6.28h1.8V0H5.6C3 0 .7 1.74.7 5.12c0 2.416 1 3.769 2.5 4.542L0 16.425h2.1l2.9-6.28h1.5zm0-1.45h-1c-1.5 0-2.8-.869-2.8-3.574 0-2.706 1.4-3.672 2.9-3.672h1v7.247h-.1z" fill="red"/></svg>