<svg width="49" height="20" fill="none" xmlns="http://www.w3.org/2000/svg"><g clip-path="url(#clip0)"><path d="M20.545 10c0-1.23-.239-2.403-.657-3.492-.11 3.582-3.85 6.356-6.047 8.192h5.497a9.742 9.742 0 001.207-4.7zm-3.974-7.888A10.389 10.389 0 0010.272 0C4.599 0 0 4.477 0 10s4.599 10 10.272 10a10.38 10.38 0 006.773-2.494H9.607l-.022-2.127c4.481-3.792 7.229-6.357 7.229-8.834 0-.92-.36-2.082-1.981-2.082-1.284 0-2.523.723-2.298 3.748H9.924c-.654-3.507 1.305-6.292 5.043-6.292.579 0 1.116.068 1.604.193z" fill="#AFCA0B"/><path d="M30.074 6.912h2.43c.082-1.8-.54-4.65-4.548-4.65-2.95 0-5.09 1.718-5.09 5.297 0 .485.021 2.992.021 4.549 0 3.881 2.763 4.73 5.089 4.73 1.392 0 3.406-.303 4.34-1.293V9.358h-4.568v2.245h2.035v2.728c-1.537.506-4.34.708-4.34-2.728V7.559c0-2.406 1.142-3.236 2.408-3.236 1.31 0 2.223.648 2.223 2.589zm18.073 6.005c.105-5.54-6.417-3.7-6.354-6.794.02-1.091.747-1.8 1.931-1.8 1.266 0 2.015.729 1.993 2.63h2.389c.063-1.72-.352-4.651-4.298-4.651-2.451 0-4.466 1.173-4.508 3.78-.104 5.318 6.459 3.58 6.355 6.794-.042 1.314-1.017 1.9-2.118 1.9-1.288 0-2.326-.728-2.118-2.911h-2.41c-.27 2.89 1.04 4.954 4.507 4.954 2.928 0 4.59-1.578 4.631-3.902zm-10.97 3.719h-2.452V2.484h2.451v14.152zm0 0h-2.452V2.484h2.451v14.152z" fill="#3C3C3B"/></g><defs><clipPath id="clip0"><path fill="#fff" d="M0 0h48.148v20H0z"/></clipPath></defs></svg>