<svg width="105" height="20" fill="none" xmlns="http://www.w3.org/2000/svg"><g clip-path="url(#clip0)"><path d="M3.88 14.813a20.2 20.2 0 011.579 2.324c.403.762.57 1.28.865 2.197.18.508.344.659.694.659.383 0 .556-.258.69-.656.278-.867.497-1.529.841-2.154.676-1.207 1.516-2.28 2.341-3.311.223-.292 1.668-1.992 2.318-3.333 0 0 .8-1.474.8-3.532 0-1.924-.789-3.26-.789-3.26l-2.269.607-1.378 3.622-.341.499-.068.09-.09.114-.16.18-.228.228-1.227.997-3.068 1.768-.51 2.961z" fill="#34A853"/><path d="M.713 10.29c.75 1.708 2.193 3.208 3.17 4.524l5.19-6.133s-.732.954-2.058.954a2.655 2.655 0 01-2.67-2.661 2.82 2.82 0 01.613-1.717L1.436 6.2l-.723 4.09z" fill="#FBBC04"/><path d="M9.13.312c1.723.554 3.199 1.718 4.09 3.434L9.075 8.678s.613-.712.613-1.724c0-1.518-1.281-2.653-2.666-2.653-1.309 0-2.06.953-2.06.953V2.147L9.13.312z" fill="#4285F4"/><path d="M1.664 2.49C2.694 1.262 4.504-.004 7-.004c1.212 0 2.125.317 2.125.317l-4.17 4.943H2.002L1.664 2.49z" fill="#1A73E8"/><path d="M.713 10.291S.024 8.945.024 6.995c0-1.843.718-3.454 1.64-4.505l3.294 2.767L.713 10.29z" fill="#EA4335"/><path d="M71.603 16.215V5.705h1.354l3.663 6.4h.059l3.663-6.4h1.353v10.51h-1.353V9.976l.06-1.761h-.06l-3.294 5.768h-.795L72.96 8.215h-.06l.06 1.761v6.239h-1.356zm14.05.22c-.765 0-1.406-.22-1.92-.66-.514-.44-.773-1.023-.773-1.747 0-.787.304-1.397.912-1.843.609-.445 1.359-.667 2.247-.667.794 0 1.446.146 1.957.44v-.206c0-.528-.182-.951-.544-1.269-.363-.318-.81-.477-1.34-.477-.392 0-.747.093-1.066.275a1.43 1.43 0 00-.654.763l-1.236-.528c.167-.43.496-.826.986-1.196s1.137-.55 1.941-.55c.922 0 1.687.269 2.295.807.608.538.912 1.297.912 2.275v4.35h-1.294v-1h-.06c-.54.826-1.329 1.233-2.364 1.233zm.22-1.233c.559 0 1.066-.208 1.522-.623.457-.415.684-.905.684-1.475-.382-.313-.956-.47-1.72-.47-.658 0-1.153.142-1.486.426-.333.284-.5.617-.5.998 0 .352.151.631.455.837a1.82 1.82 0 001.044.308zm8.568 1.233a3.072 3.072 0 01-1.478-.352c-.435-.234-.762-.529-.977-.881h-.059l.06.998v3.17h-1.354V9.009h1.295v.998h.059c.215-.352.541-.646.977-.88.436-.236.93-.353 1.478-.353.932 0 1.736.367 2.413 1.101.676.734 1.015 1.644 1.015 2.73 0 1.087-.339 1.997-1.015 2.73-.677.734-1.481 1.102-2.413 1.102zm-.22-1.233c.627 0 1.166-.237 1.618-.707.451-.47.676-1.104.676-1.887 0-.783-.225-1.415-.676-1.886-.451-.47-.991-.708-1.618-.708-.638 0-1.18.235-1.626.705-.446.47-.669 1.1-.669 1.893 0 .793.223 1.424.669 1.894.446.47.988.704 1.626.704v-.008zm7.245 1.233c-.804 0-1.468-.196-1.993-.587a3.499 3.499 0 01-1.155-1.468l1.206-.5c.382.905 1.035 1.35 1.957 1.35.422 0 .768-.092 1.037-.275.27-.182.405-.43.405-.733 0-.47-.329-.788-.986-.954l-1.456-.352a3.47 3.47 0 01-1.31-.668c-.411-.328-.617-.77-.617-1.328 0-.636.281-1.152.845-1.55.564-.396 1.234-.594 2.008-.594.638 0 1.206.144 1.707.433.49.277.87.715 1.074 1.24l-1.177.484c-.265-.635-.814-.954-1.648-.954-.402 0-.741.084-1.015.25-.273.166-.411.391-.411.675 0 .411.315.69.956.837l1.426.338c.677.156 1.177.425 1.501.807.323.381.485.812.485 1.292 0 .646-.265 1.18-.794 1.615-.53.435-1.211.645-2.05.645l.005-.003zM31.499 9.95h-5.552v1.643h3.941c-.194 2.305-2.116 3.288-3.93 3.288a4.335 4.335 0 01-3.093-1.278 4.319 4.319 0 01-1.253-3.098c0-2.488 1.93-4.404 4.35-4.404 1.868 0 2.968 1.188 2.968 1.188l1.153-1.191s-1.48-1.644-4.18-1.644c-3.437 0-6.098 2.895-6.098 6.023 0 3.064 2.503 6.053 6.186 6.053 3.24 0 5.612-2.215 5.612-5.49 0-.69-.1-1.09-.1-1.09h-.004zm4.557-1.17c-2.278 0-3.91 1.776-3.91 3.849 0 2.103 1.583 3.912 3.94 3.912 2.132 0 3.877-1.625 3.877-3.868 0-2.57-2.03-3.894-3.903-3.894h-.004zm.022 1.524c1.12 0 2.182.904 2.182 2.36 0 1.425-1.057 2.355-2.187 2.355-1.242 0-2.22-.992-2.22-2.366 0-1.344.967-2.348 2.225-2.348zM44.52 8.78c-2.278 0-3.91 1.776-3.91 3.849 0 2.103 1.583 3.912 3.94 3.912 2.131 0 3.877-1.625 3.877-3.868 0-2.57-2.031-3.894-3.904-3.894h-.003zm.022 1.524c1.12 0 2.182.904 2.182 2.36 0 1.425-1.058 2.355-2.188 2.355-1.24 0-2.22-.992-2.22-2.366 0-1.344.967-2.348 2.226-2.348zm8.311-1.524c-2.09 0-3.734 1.827-3.734 3.878 0 2.336 1.905 3.885 3.697 3.885 1.109 0 1.698-.44 2.134-.944v.765c0 1.34-.815 2.142-2.05 2.142-1.187 0-1.783-.882-1.99-1.382l-1.495.623c.53 1.12 1.598 2.286 3.499 2.286 2.079 0 3.663-1.306 3.663-4.05V9.01h-1.63v.657c-.502-.538-1.188-.89-2.097-.89l.003.002zm.151 1.522c1.026 0 2.078.872 2.078 2.364 0 1.516-1.05 2.351-2.1 2.351-1.115 0-2.152-.902-2.152-2.337 0-1.494 1.077-2.379 2.174-2.379zM63.856 8.78c-1.973 0-3.629 1.565-3.629 3.876 0 2.444 1.846 3.894 3.818 3.894 1.645 0 2.656-.898 3.258-1.703l-1.34-.893c-.349.54-.932 1.069-1.905 1.069-1.094 0-1.596-.598-1.908-1.176l5.216-2.163-.271-.63c-.504-1.239-1.68-2.274-3.232-2.274h-.008zm.067 1.492c.711 0 1.222.378 1.44.83l-3.483 1.452c-.15-1.125.917-2.282 2.044-2.282zm-6.187 6.047h1.713V4.876h-1.713v11.443z" fill="#767676"/></g><defs><clipPath id="clip0"><path fill="#fff" d="M0 0h104.286v20H0z"/></clipPath></defs></svg>