<svg width="80" height="20" fill="none" xmlns="http://www.w3.org/2000/svg"><path d="M0 0h20v20H0V0z" fill="#303540"/><path d="M7.964 7.964a2.867 2.867 0 000 4.036A2.867 2.867 0 0012 12a2.867 2.867 0 000-4.036c-1.107-1.107-2.893-1.107-4.036 0z" fill="#FEFEFE"/><path d="M14.643 5.572v4.392a4.65 4.65 0 01-4.679 4.679H5.571c2.536 2.429 6.5 2.393 8.965-.107 2.464-2.464 2.5-6.429.107-8.964zm-9.286 4.464a4.65 4.65 0 014.679-4.679h4.393c-2.536-2.428-6.5-2.393-8.965.107-2.464 2.5-2.5 6.465-.107 8.965v-4.393z" fill="#fff"/><path d="M20 0h60v20H20V0z" fill="#2E6BE5"/><path d="M30.107 10.821c-1.285-.357-2.25-1.392-2.25-2.892C27.857 6.07 29.393 5 31.036 5h7.821v2.25h-4.571V9h3.535v2.179h-3.535v3.107h-2.429V7.179H31c-.393 0-.857.25-.857.75 0 .392.25.642.571.785l-.607 2.107zM40 14.286V5h2.5v9.286H40zm6.822-7c1.857 0 3.178.893 3.178 2.75v4.25h-2.107v-.715c-.393.715-1.286.929-2.143.929-1.5 0-2.357-1.071-2.357-2.286 0-1.035.821-2.285 2.857-2.285h1.464V9.82c0-.785-.285-1.071-.928-1.071-.572 0-.929.286-.965.821H43.68c.107-1.321 1.178-2.285 3.142-2.285zm.928 4.393v-.393h-1.036c-.607 0-1.071.321-1.071.785 0 .5.357.75.964.75.715 0 1.143-.5 1.143-1.142zM57.286 8.5c.464-.857 1.143-1.179 2.035-1.179 1.715 0 2.465 1.072 2.465 2.786v4.179h-2.322V10.57c0-.785-.142-1.25-.821-1.25-.75 0-.964.572-.964 1.322v3.643h-2.322V10.57c0-.785-.178-1.25-.893-1.25-.75 0-1 .643-1 1.429v3.571h-2.392V7.5h2.25v1c.464-.964 1.285-1.214 2.035-1.214.893 0 1.536.357 1.929 1.214zm7.857-.071c.464-.858 1.321-1.143 2.143-1.143 1.785 0 2.857 1.5 2.857 3.607 0 2.143-1.107 3.607-2.857 3.607-.822 0-1.643-.25-2.072-.929v3.215h-2.357V7.5h2.286v.929zm1.286 4.214c1 0 1.392-.822 1.392-1.75 0-.929-.357-1.714-1.392-1.714-.965 0-1.393.785-1.393 1.714.035.928.428 1.75 1.393 1.75z" fill="#fff"/></svg>